<svg xmlns="http://www.w3.org/2000/svg" viewBox="0 0 128 128" role="img" aria-label="Assets">
  <path d="M30 18h49l11 11" fill="none" stroke="#002b5c" stroke-width="10" stroke-linecap="square"/>
  <path d="M96 18h15l13 13" fill="none" stroke="#ff6b00" stroke-width="6" stroke-linecap="square"/>
  <path d="M111 38v50l-18 18H31L14 89V38z" fill="none" stroke="#002b5c" stroke-width="10" stroke-linecap="square" stroke-linejoin="miter"/>
  <path d="M91 107h22V88" fill="none" stroke="#6f94b5" stroke-width="10" stroke-linecap="square"/>
  <path d="M38 51 65 35l27 16-27 16z" fill="#fff" stroke="#002b5c" stroke-width="5" stroke-linejoin="round"/>
  <path d="M38 51v31l27 16 27-16V51M65 67v31M49 45l27 16" fill="none" stroke="#002b5c" stroke-width="5" stroke-linejoin="round"/>
  <path d="M93 69c13 0 17-7 17-18M93 69c13 0 17 7 17 18" fill="none" stroke="#002b5c" stroke-width="5" stroke-linecap="round"/>
  <circle cx="110" cy="51" r="5" fill="#002b5c"/>
  <circle cx="110" cy="87" r="5" fill="#002b5c"/>
</svg>
