<svg xmlns="http://www.w3.org/2000/svg" viewBox="0 0 128 128" role="img" aria-label="Diario preposto">
  <path d="M30 18h49l11 11" fill="none" stroke="#002b5c" stroke-width="10" stroke-linecap="square"/>
  <path d="M96 18h15l13 13" fill="none" stroke="#ff6b00" stroke-width="6" stroke-linecap="square"/>
  <path d="M111 38v50l-18 18H31L14 89V38z" fill="none" stroke="#002b5c" stroke-width="10" stroke-linecap="square" stroke-linejoin="miter"/>
  <path d="M91 107h22V88" fill="none" stroke="#6f94b5" stroke-width="10" stroke-linecap="square"/>
  <rect x="42" y="43" width="48" height="56" rx="5" fill="#fff" stroke="#002b5c" stroke-width="5"/>
  <path d="M56 39h20a4 4 0 0 1 4 4v8H52v-8a4 4 0 0 1 4-4z" fill="#002b5c"/>
  <circle cx="66" cy="37" r="5" fill="#fff" stroke="#002b5c" stroke-width="5"/>
  <path d="m50 61 6 6 10-12M50 76l6 6 10-12M50 91l6 6 10-12M72 63h14M72 78h14M72 93h10" fill="none" stroke="#002b5c" stroke-width="5" stroke-linecap="round" stroke-linejoin="round"/>
</svg>
