<svg xmlns="http://www.w3.org/2000/svg" viewBox="0 0 1100 720" font-family="system-ui, -apple-system, Segoe UI, Roboto, sans-serif">
  <defs>
    <linearGradient id="g-hr" x1="0" x2="1" y1="0" y2="1"><stop offset="0" stop-color="#fde68a"/><stop offset="1" stop-color="#f59e0b"/></linearGradient>
    <linearGradient id="g-ops" x1="0" x2="1" y1="0" y2="1"><stop offset="0" stop-color="#bfdbfe"/><stop offset="1" stop-color="#3b82f6"/></linearGradient>
    <linearGradient id="g-sec" x1="0" x2="1" y1="0" y2="1"><stop offset="0" stop-color="#fecaca"/><stop offset="1" stop-color="#ef4444"/></linearGradient>
    <linearGradient id="g-gov" x1="0" x2="1" y1="0" y2="1"><stop offset="0" stop-color="#ddd6fe"/><stop offset="1" stop-color="#7c3aed"/></linearGradient>
    <linearGradient id="g-auto" x1="0" x2="1" y1="0" y2="1"><stop offset="0" stop-color="#bbf7d0"/><stop offset="1" stop-color="#16a34a"/></linearGradient>
    <linearGradient id="g-core" x1="0" x2="1" y1="0" y2="1"><stop offset="0" stop-color="#cbd5e1"/><stop offset="1" stop-color="#475569"/></linearGradient>
  </defs>

  <rect width="1100" height="720" fill="#f8fafc"/>

  <text x="40" y="44" font-size="22" font-weight="700" fill="#0f172a">Moduli del portale</text>
  <text x="40" y="66" font-size="12" fill="#64748b">25+ app Django organizzate per area funzionale · governance ACL canonica v2</text>

  <!-- Row 1: Core platform -->
  <g>
    <rect x="40" y="90" width="1020" height="100" rx="12" fill="#fff" stroke="#cbd5e1"/>
    <rect x="40" y="90" width="6" height="100" fill="url(#g-core)"/>
    <text x="60" y="113" font-size="13" font-weight="700" fill="#334155">CORE PLATFORM</text>

    <g font-size="12" fill="#0f172a">
      <rect x="60" y="125" width="235" height="55" rx="8" fill="#f1f5f9"/>
      <text x="72" y="146" font-weight="700">📊 dashboard</text>
      <text x="72" y="164" fill="#64748b" font-size="11">home KPI personalizzabile · widget</text>
      <text x="72" y="178" fill="#64748b" font-size="11">layout per utente · template admin</text>

      <rect x="305" y="125" width="235" height="55" rx="8" fill="#f1f5f9"/>
      <text x="317" y="146" font-weight="700">⚙️ core</text>
      <text x="317" y="164" fill="#64748b" font-size="11">middleware · ACL · navigation</text>
      <text x="317" y="178" fill="#64748b" font-size="11">audit · onboarding · legacy models</text>

      <rect x="550" y="125" width="235" height="55" rx="8" fill="#f1f5f9"/>
      <text x="562" y="146" font-weight="700">🧭 admin_portale</text>
      <text x="562" y="164" fill="#64748b" font-size="11">pannello admin custom · ACL canonico</text>
      <text x="562" y="178" fill="#64748b" font-size="11">diagnostica · route coverage · branding</text>

      <rect x="795" y="125" width="245" height="55" rx="8" fill="#f1f5f9"/>
      <text x="807" y="146" font-weight="700">🛠️ hub_tools · setup_wizard</text>
      <text x="807" y="164" fill="#64748b" font-size="11">moduli · DB manager · schema infografic</text>
      <text x="807" y="178" fill="#64748b" font-size="11">wizard 14 step · homepage builder</text>
    </g>
  </g>

  <!-- Row 2: HR & workflow -->
  <g>
    <rect x="40" y="205" width="1020" height="100" rx="12" fill="#fff" stroke="#fde68a"/>
    <rect x="40" y="205" width="6" height="100" fill="url(#g-hr)"/>
    <text x="60" y="228" font-size="13" font-weight="700" fill="#b45309">HR &amp; WORKFLOW</text>

    <g font-size="12" fill="#0f172a">
      <rect x="60" y="240" width="190" height="55" rx="8" fill="#fef3c7"/>
      <text x="72" y="261" font-weight="700">🗓️ assenze</text>
      <text x="72" y="279" fill="#78350f" font-size="11">richieste · gestione · calendario</text>
      <text x="72" y="293" fill="#78350f" font-size="11">certificazione presenza · SP sync</text>

      <rect x="260" y="240" width="190" height="55" rx="8" fill="#fef3c7"/>
      <text x="272" y="261" font-weight="700">🚨 anomalie</text>
      <text x="272" y="279" fill="#78350f" font-size="11">segnalazioni produzione</text>
      <text x="272" y="293" fill="#78350f" font-size="11">gestione + report</text>

      <rect x="460" y="240" width="190" height="55" rx="8" fill="#fef3c7"/>
      <text x="472" y="261" font-weight="700">🎫 tickets</text>
      <text x="472" y="279" fill="#78350f" font-size="11">ticket interni · interventi</text>
      <text x="472" y="293" fill="#78350f" font-size="11">fermo macchina · ricorrenti</text>

      <rect x="660" y="240" width="190" height="55" rx="8" fill="#fef3c7"/>
      <text x="672" y="261" font-weight="700">⏱️ timbri</text>
      <text x="672" y="279" fill="#78350f" font-size="11">report timbrature · import</text>
      <text x="672" y="293" fill="#78350f" font-size="11">registro · immagini card</text>

      <rect x="860" y="240" width="180" height="55" rx="8" fill="#fef3c7"/>
      <text x="872" y="261" font-weight="700">📰 notizie</text>
      <text x="872" y="279" fill="#78350f" font-size="11">bacheca · audience</text>
      <text x="872" y="293" fill="#78350f" font-size="11">allegati · letture tracked</text>
    </g>
  </g>

  <!-- Row 3: Operations -->
  <g>
    <rect x="40" y="320" width="1020" height="100" rx="12" fill="#fff" stroke="#bfdbfe"/>
    <rect x="40" y="320" width="6" height="100" fill="url(#g-ops)"/>
    <text x="60" y="343" font-size="13" font-weight="700" fill="#1e40af">OPERATIONS</text>

    <g font-size="12" fill="#0f172a">
      <rect x="60" y="355" width="235" height="55" rx="8" fill="#eff6ff"/>
      <text x="72" y="376" font-weight="700">🏭 assets</text>
      <text x="72" y="394" fill="#1e3a8a" font-size="11">inventario · work order · planimetrie</text>
      <text x="72" y="408" fill="#1e3a8a" font-size="11">manutenzioni · licenze SW · Outlook</text>

      <rect x="305" y="355" width="235" height="55" rx="8" fill="#eff6ff"/>
      <text x="317" y="376" font-weight="700">📋 tasks (KICK-OFF)</text>
      <text x="317" y="394" fill="#1e3a8a" font-size="11">portfolio progetti · attività · VRF</text>
      <text x="317" y="408" fill="#1e3a8a" font-size="11">upload MOD.073 · blocco progressivo</text>

      <rect x="550" y="355" width="235" height="55" rx="8" fill="#eff6ff"/>
      <text x="562" y="376" font-weight="700">👥 anagrafica</text>
      <text x="562" y="394" fill="#1e3a8a" font-size="11">dipendenti · fornitori · documenti</text>
      <text x="562" y="408" fill="#1e3a8a" font-size="11">ruoli operativi · valutazioni</text>

      <rect x="795" y="355" width="245" height="55" rx="8" fill="#eff6ff"/>
      <text x="807" y="376" font-weight="700">🗺️ planimetria</text>
      <text x="807" y="394" fill="#1e3a8a" font-size="11">wrapper assets · layout impianti</text>
      <text x="807" y="408" fill="#1e3a8a" font-size="11">marker · officine · tvcc</text>
    </g>
  </g>

  <!-- Row 4: Security & Compliance -->
  <g>
    <rect x="40" y="435" width="1020" height="100" rx="12" fill="#fff" stroke="#fecaca"/>
    <rect x="40" y="435" width="6" height="100" fill="url(#g-sec)"/>
    <text x="60" y="458" font-size="13" font-weight="700" fill="#991b1b">SICUREZZA &amp; COMPLIANCE</text>

    <g font-size="12" fill="#0f172a">
      <rect x="60" y="470" width="190" height="55" rx="8" fill="#fef2f2"/>
      <text x="72" y="491" font-weight="700">🦺 dpi</text>
      <text x="72" y="509" fill="#7f1d1d" font-size="11">richieste · approvazione</text>
      <text x="72" y="523" fill="#7f1d1d" font-size="11">consegna · storico · KPI</text>

      <rect x="260" y="470" width="190" height="55" rx="8" fill="#fef2f2"/>
      <text x="272" y="491" font-weight="700">📖 diario_preposto</text>
      <text x="272" y="509" fill="#7f1d1d" font-size="11">segnalazioni sicurezza</text>
      <text x="272" y="523" fill="#7f1d1d" font-size="11">allegati · follow-up</text>

      <rect x="460" y="470" width="190" height="55" rx="8" fill="#fef2f2"/>
      <text x="472" y="491" font-weight="700">⚠️ rilevazione_incidenti</text>
      <text x="472" y="509" fill="#7f1d1d" font-size="11">unsafe conditions · SharePoint</text>
      <text x="472" y="523" fill="#7f1d1d" font-size="11">cache locale · Graph CRUD</text>

      <rect x="660" y="470" width="190" height="55" rx="8" fill="#fef2f2"/>
      <text x="672" y="491" font-weight="700">📑 procedure_refresh</text>
      <text x="672" y="509" fill="#7f1d1d" font-size="11">MT/MTSI presa visione</text>
      <text x="672" y="523" fill="#7f1d1d" font-size="11">campagne · export CSV</text>

      <rect x="860" y="470" width="180" height="55" rx="8" fill="#fef2f2"/>
      <text x="872" y="491" font-weight="700">♻️ rentri</text>
      <text x="872" y="509" fill="#7f1d1d" font-size="11">tracciabilità rifiuti</text>
      <text x="872" y="523" fill="#7f1d1d" font-size="11">normativa RENTRI</text>
    </g>
  </g>

  <!-- Row 5: Automation & Governance -->
  <g>
    <rect x="40" y="550" width="1020" height="100" rx="12" fill="#fff" stroke="#bbf7d0"/>
    <rect x="40" y="550" width="6" height="100" fill="url(#g-auto)"/>
    <text x="60" y="573" font-size="13" font-weight="700" fill="#14532d">AUTOMAZIONI &amp; GOVERNANCE</text>

    <g font-size="12" fill="#0f172a">
      <rect x="60" y="585" width="310" height="55" rx="8" fill="#f0fdf4"/>
      <text x="72" y="606" font-weight="700">🔁 automazioni</text>
      <text x="72" y="624" fill="#14532d" font-size="11">designer visuale · trigger SQL · queue</text>
      <text x="72" y="638" fill="#14532d" font-size="11">approvazioni email/Teams · Power Automate import</text>

      <rect x="380" y="585" width="310" height="55" rx="8" fill="#f0fdf4"/>
      <text x="392" y="606" font-weight="700">🔐 ACL canonico v2</text>
      <text x="392" y="624" fill="#14532d" font-size="11">PermissionDefinition · Route binding</text>
      <text x="392" y="638" fill="#14532d" font-size="11">grant ruolo · override utente · strict mode</text>

      <rect x="700" y="585" width="340" height="55" rx="8" fill="#f0fdf4"/>
      <text x="712" y="606" font-weight="700">🧪 setup_wizard · monitoring</text>
      <text x="712" y="624" fill="#14532d" font-size="11">installer PyInstaller 14 step · discovery SQL</text>
      <text x="712" y="638" fill="#14532d" font-size="11">server dashboard · log viewer · task scheduler</text>
    </g>
  </g>

  <text x="40" y="695" font-size="11" fill="#64748b">Moduli disabilitabili dal Module Manager · branding per modulo (logo, nome) via SiteConfig · sidebar configurabile per ruolo via Navigation Builder</text>
</svg>
